ffmpeg started on 2026-01-20 at 18:47:08
Report written to "D:\Convert\FFMetrics\reports\psnr_report-6.txt"
Log level: 32
Command line:
ffmpeg -hide_banner -nostdin -r 24000/1001 -i "F:\\Convert\\files\\[DC] Make Heroine ga Oosugiru - 07_Telegram_HEVC(216).mkv" -r 24000/1001 -i "F:\\Convert\\files\\[DC] Make Heroine ga Oosugiru - 07_Telegram.mp4" -lavfi "[0:v]settb=AVTB,setpts=PTS-STARTPTS,format=pix_fmts=yuv420p10le,fps=24000/1001,scale=1920:1080:flags=lanczos:param0=3:out_range=limited:out_color_matrix=bt709:out_chroma_loc=left,setsar=1/1,setdar=(1920/1080)*(1/1),colorspace=format=yuv420p10:range=tv:primaries=bt709:trc=bt709:space=bt709:fast=0[main];[1:v]settb=AVTB,setpts=PTS-STARTPTS,format=pix_fmts=yuv420p,fps=24000/1001,scale=1920:1080:flags=lanczos:param0=3:out_range=limited:out_color_matrix=bt709:out_chroma_loc=left,setsar=1.000,setdar=1.778,colorspace=format=yuv420p:range=tv:primaries=bt709:trc=bt709:space=bt709:fast=0[ref];[main][ref]psnr=eof_action=endall:stats_file='D\\:/Convert/FFMetrics/logs/psnr_logfile-6.txt'" -f null -
Input #0, matroska,webm, from 'F:\Convert\files\[DC] Make Heroine ga Oosugiru - 07_Telegram_HEVC(216).mkv':
  Metadata:
    COMPATIBLE_BRANDS: isomiso2avc1mp41
    MAJOR_BRAND     : isom
    MINOR_VERSION   : 512
    ENCODER         : Lavf61.7.100
  Duration: 00:24:06.79, start: -0.021000, bitrate: 907 kb/s
  Stream #0:0: Video: hevc (Main 10), yuv420p10le(tv, bt709, progressive), 1920x1080 [SAR 1:1 DAR 16:9], 23.98 fps, 23.98 tbr, 1k tbn (default)
      Metadata:
        HANDLER_NAME    : VideoHandler
        VENDOR_ID       : [0][0][0][0]
        ENCODER         : Lavc61.19.100 libx265
        BPS             : 710366
        DURATION        : 00:24:06.569708333
        NUMBER_OF_FRAMES: 34683
        NUMBER_OF_BYTES : 128449305
        _STATISTICS_WRITING_APP: mkvpropedit v94.0 ('Initiate') 64-bit
        _STATISTICS_WRITING_DATE_UTC: 2026-01-20 14:16:16
        _STATISTICS_TAGS: BPS DURATION NUMBER_OF_FRAMES NUMBER_OF_BYTES
  Stream #0:1: Audio: aac (LC), 48000 Hz, stereo, fltp (default)
      Metadata:
        HANDLER_NAME    : SoundHandler
        VENDOR_ID       : [0][0][0][0]
        ENCODER         : Lavc61.19.100 aac
        BPS             : 193194
        DURATION        : 00:24:06.784000000
        NUMBER_OF_FRAMES: 67819
        NUMBER_OF_BYTES : 34938755
        _STATISTICS_WRITING_APP: mkvpropedit v94.0 ('Initiate') 64-bit
        _STATISTICS_WRITING_DATE_UTC: 2026-01-20 14:16:16
        _STATISTICS_TAGS: BPS DURATION NUMBER_OF_FRAMES NUMBER_OF_BYTES
Input #1, mov,mp4,m4a,3gp,3g2,mj2, from 'F:\Convert\files\[DC] Make Heroine ga Oosugiru - 07_Telegram.mp4':
  Metadata:
    major_brand     : isom
    minor_version   : 512
    compatible_brands: isomiso2avc1mp41
    encoder         : Lavf60.16.100
  Duration: 00:24:06.74, start: 0.000000, bitrate: 3764 kb/s
  Stream #1:0[0x1](und): Video: h264 (High) (avc1 / 0x31637661), yuv420p(tv, bt709, progressive), 1920x1080 [SAR 1:1 DAR 16:9], 3616 kb/s, 23.98 fps, 23.98 tbr, 24k tbn (default)
      Metadata:
        handler_name    : VideoHandler
        vendor_id       : [0][0][0][0]
        encoder         : Lavc60.31.102 h264_qsv
  Stream #1:1[0x2](und): Audio: aac (HE-AACv2) (mp4a / 0x6134706D), 48000 Hz, stereo, fltp, 144 kb/s (default)
      Metadata:
        handler_name    : SoundHandler
        vendor_id       : [0][0][0][0]
Stream mapping:
  Stream #0:0 (hevc) -> settb:default
  Stream #1:0 (h264) -> settb:default
  psnr:default -> Stream #0:0 (wrapped_avframe)
  Stream #0:1 -> #0:1 (aac (native) -> pcm_s16le (native))
Output #0, null, to 'pipe:':
  Metadata:
    COMPATIBLE_BRANDS: isomiso2avc1mp41
    MAJOR_BRAND     : isom
    MINOR_VERSION   : 512
    encoder         : Lavf61.7.100
  Stream #0:0: Video: wrapped_avframe, yuv420p10le(tv, bt709, progressive), 1920x1080 [SAR 1:1 DAR 16:9], q=2-31, 200 kb/s, 23.98 fps, 23.98 tbn
      Metadata:
        encoder         : Lavc61.19.100 wrapped_avframe
  Stream #0:1: Audio: pcm_s16le, 48000 Hz, stereo, s16, 1536 kb/s (default)
      Metadata:
        HANDLER_NAME    : SoundHandler
        VENDOR_ID       : [0][0][0][0]
        _STATISTICS_TAGS: BPS DURATION NUMBER_OF_FRAMES NUMBER_OF_BYTES
        BPS             : 193194
        DURATION        : 00:24:06.784000000
        NUMBER_OF_FRAMES: 67819
        NUMBER_OF_BYTES : 34938755
        _STATISTICS_WRITING_APP: mkvpropedit v94.0 ('Initiate') 64-bit
        _STATISTICS_WRITING_DATE_UTC: 2026-01-20 14:16:16
        encoder         : Lavc61.19.100 pcm_s16le
frame=  137 fps=0.0 q=-0.0 size=N/A time=00:00:05.71 bitrate=N/A speed=11.2x    frame=  323 fps=315 q=-0.0 size=N/A time=00:00:13.47 bitrate=N/A speed=13.1x    frame=  522 fps=336 q=-0.0 size=N/A time=00:00:21.77 bitrate=N/A speed=  14x    frame=  715 fps=346 q=-0.0 size=N/A time=00:00:29.82 bitrate=N/A speed=14.4x    frame=  893 fps=347 q=-0.0 size=N/A time=00:00:37.24 bitrate=N/A speed=14.5x    frame= 1034 fps=335 q=-0.0 size=N/A time=00:00:43.12 bitrate=N/A speed=  14x    frame= 1207 fps=334 q=-0.0 size=N/A time=00:00:50.34 bitrate=N/A speed=13.9x    frame= 1373 fps=333 q=-0.0 size=N/A time=00:00:57.26 bitrate=N/A speed=13.9x    frame= 1526 fps=329 q=-0.0 size=N/A time=00:01:03.64 bitrate=N/A speed=13.7x    frame= 1673 fps=324 q=-0.0 size=N/A time=00:01:09.77 bitrate=N/A speed=13.5x    frame= 1842 fps=325 q=-0.0 size=N/A time=00:01:16.82 bitrate=N/A speed=13.5x    frame= 2003 fps=324 q=-0.0 size=N/A time=00:01:23.54 bitrate=N/A speed=13.5x    frame= 2124 fps=317 q=-0.0 size=N/A time=00:01:28.58 bitrate=N/A speed=13.2x    frame= 2276 fps=315 q=-0.0 size=N/A time=00:01:34.92 bitrate=N/A speed=13.2x    frame= 2421 fps=313 q=-0.0 size=N/A time=00:01:40.97 bitrate=N/A speed=13.1x    frame= 2562 fps=310 q=-0.0 size=N/A time=00:01:46.85 bitrate=N/A speed=12.9x    frame= 2727 fps=311 q=-0.0 size=N/A time=00:01:53.73 bitrate=N/A speed=  13x    frame= 2901 fps=313 q=-0.0 size=N/A time=00:02:00.99 bitrate=N/A speed=  13x    frame= 3099 fps=316 q=-0.0 size=N/A time=00:02:09.25 bitrate=N/A speed=13.2x    frame= 3293 fps=319 q=-0.0 size=N/A time=00:02:17.34 bitrate=N/A speed=13.3x    frame= 3480 fps=322 q=-0.0 size=N/A time=00:02:25.14 bitrate=N/A speed=13.4x    frame= 3676 fps=324 q=-0.0 size=N/A time=00:02:33.31 bitrate=N/A speed=13.5x    frame= 3872 fps=326 q=-0.0 size=N/A time=00:02:41.49 bitrate=N/A speed=13.6x    frame= 4060 fps=328 q=-0.0 size=N/A time=00:02:49.33 bitrate=N/A speed=13.7x    frame= 4259 fps=331 q=-0.0 size=N/A time=00:02:57.63 bitrate=N/A speed=13.8x    frame= 4456 fps=332 q=-0.0 size=N/A time=00:03:05.85 bitrate=N/A speed=13.9x    frame= 4647 fps=334 q=-0.0 size=N/A time=00:03:13.81 bitrate=N/A speed=13.9x    frame= 4840 fps=335 q=-0.0 size=N/A time=00:03:21.86 bitrate=N/A speed=  14x    frame= 5023 fps=336 q=-0.0 size=N/A time=00:03:29.50 bitrate=N/A speed=  14x    frame= 5221 fps=337 q=-0.0 size=N/A time=00:03:37.75 bitrate=N/A speed=14.1x    frame= 5414 fps=339 q=-0.0 size=N/A time=00:03:45.80 bitrate=N/A speed=14.1x    frame= 5603 fps=340 q=-0.0 size=N/A time=00:03:53.69 bitrate=N/A speed=14.2x    frame= 5803 fps=341 q=-0.0 size=N/A time=00:04:02.03 bitrate=N/A speed=14.2x    frame= 5995 fps=342 q=-0.0 size=N/A time=00:04:10.04 bitrate=N/A speed=14.3x    frame= 6186 fps=343 q=-0.0 size=N/A time=00:04:18.00 bitrate=N/A speed=14.3x    frame= 6383 fps=344 q=-0.0 size=N/A time=00:04:26.22 bitrate=N/A speed=14.3x    frame= 6578 fps=345 q=-0.0 size=N/A time=00:04:34.35 bitrate=N/A speed=14.4x    frame= 6772 fps=346 q=-0.0 size=N/A time=00:04:42.44 bitrate=N/A speed=14.4x    frame= 6965 fps=346 q=-0.0 size=N/A time=00:04:50.49 bitrate=N/A speed=14.5x    frame= 7159 fps=347 q=-0.0 size=N/A time=00:04:58.58 bitrate=N/A speed=14.5x    frame= 7340 fps=347 q=-0.0 size=N/A time=00:05:06.13 bitrate=N/A speed=14.5x    frame= 7528 fps=348 q=-0.0 size=N/A time=00:05:13.98 bitrate=N/A speed=14.5x    frame= 7719 fps=348 q=-0.0 size=N/A time=00:05:21.94 bitrate=N/A speed=14.5x    frame= 7915 fps=349 q=-0.0 size=N/A time=00:05:30.12 bitrate=N/A speed=14.5x    frame= 8102 fps=349 q=-0.0 size=N/A time=00:05:37.92 bitrate=N/A speed=14.6x    frame= 8288 fps=350 q=-0.0 size=N/A time=00:05:45.67 bitrate=N/A speed=14.6x    frame= 8481 fps=350 q=-0.0 size=N/A time=00:05:53.72 bitrate=N/A speed=14.6x    frame= 8681 fps=351 q=-0.0 size=N/A time=00:06:02.07 bitrate=N/A speed=14.6x    frame= 8867 fps=351 q=-0.0 size=N/A time=00:06:09.82 bitrate=N/A speed=14.6x    frame= 9063 fps=351 q=-0.0 size=N/A time=00:06:18.00 bitrate=N/A speed=14.7x    frame= 9259 fps=352 q=-0.0 size=N/A time=00:06:26.17 bitrate=N/A speed=14.7x    frame= 9449 fps=352 q=-0.0 size=N/A time=00:06:34.10 bitrate=N/A speed=14.7x    frame= 9633 fps=352 q=-0.0 size=N/A time=00:06:41.77 bitrate=N/A speed=14.7x    frame= 9832 fps=353 q=-0.0 size=N/A time=00:06:50.07 bitrate=N/A speed=14.7x    frame=10017 fps=353 q=-0.0 size=N/A time=00:06:57.79 bitrate=N/A speed=14.7x    frame=10207 fps=353 q=-0.0 size=N/A time=00:07:05.71 bitrate=N/A speed=14.7x    frame=10394 fps=354 q=-0.0 size=N/A time=00:07:13.51 bitrate=N/A speed=14.7x    frame=10591 fps=354 q=-0.0 size=N/A time=00:07:21.73 bitrate=N/A speed=14.8x    frame=10780 fps=354 q=-0.0 size=N/A time=00:07:29.61 bitrate=N/A speed=14.8x    frame=10971 fps=354 q=-0.0 size=N/A time=00:07:37.58 bitrate=N/A speed=14.8x    frame=11156 fps=355 q=-0.0 size=N/A time=00:07:45.29 bitrate=N/A speed=14.8x    frame=11338 fps=355 q=-0.0 size=N/A time=00:07:52.88 bitrate=N/A speed=14.8x    frame=11540 fps=355 q=-0.0 size=N/A time=00:08:01.31 bitrate=N/A speed=14.8x    frame=11725 fps=355 q=-0.0 size=N/A time=00:08:09.03 bitrate=N/A speed=14.8x    frame=11912 fps=355 q=-0.0 size=N/A time=00:08:16.82 bitrate=N/A speed=14.8x    frame=12113 fps=356 q=-0.0 size=N/A time=00:08:25.21 bitrate=N/A speed=14.8x    frame=12305 fps=356 q=-0.0 size=N/A time=00:08:33.22 bitrate=N/A speed=14.9x    frame=12500 fps=356 q=-0.0 size=N/A time=00:08:41.35 bitrate=N/A speed=14.9x    frame=12692 fps=357 q=-0.0 size=N/A time=00:08:49.36 bitrate=N/A speed=14.9x    frame=12886 fps=357 q=-0.0 size=N/A time=00:08:57.45 bitrate=N/A speed=14.9x    frame=13079 fps=357 q=-0.0 size=N/A time=00:09:05.50 bitrate=N/A speed=14.9x    frame=13270 fps=357 q=-0.0 size=N/A time=00:09:13.46 bitrate=N/A speed=14.9x    frame=13448 fps=357 q=-0.0 size=N/A time=00:09:20.89 bitrate=N/A speed=14.9x    frame=13639 fps=357 q=-0.0 size=N/A time=00:09:28.85 bitrate=N/A speed=14.9x    frame=13840 fps=358 q=-0.0 size=N/A time=00:09:37.24 bitrate=N/A speed=14.9x    frame=14027 fps=358 q=-0.0 size=N/A time=00:09:45.04 bitrate=N/A speed=14.9x    frame=14211 fps=358 q=-0.0 size=N/A time=00:09:52.71 bitrate=N/A speed=14.9x    frame=14396 fps=358 q=-0.0 size=N/A time=00:10:00.43 bitrate=N/A speed=14.9x    frame=14595 fps=358 q=-0.0 size=N/A time=00:10:08.73 bitrate=N/A speed=14.9x    frame=14781 fps=358 q=-0.0 size=N/A time=00:10:16.49 bitrate=N/A speed=14.9x    frame=14972 fps=358 q=-0.0 size=N/A time=00:10:24.45 bitrate=N/A speed=14.9x    frame=15143 fps=358 q=-0.0 size=N/A time=00:10:31.58 bitrate=N/A speed=14.9x    frame=15325 fps=358 q=-0.0 size=N/A time=00:10:39.18 bitrate=N/A speed=14.9x    frame=15514 fps=358 q=-0.0 size=N/A time=00:10:47.06 bitrate=N/A speed=14.9x    frame=15708 fps=358 q=-0.0 size=N/A time=00:10:55.15 bitrate=N/A speed=14.9x    frame=15901 fps=359 q=-0.0 size=N/A time=00:11:03.20 bitrate=N/A speed=  15x    frame=16097 fps=359 q=-0.0 size=N/A time=00:11:11.37 bitrate=N/A speed=  15x    frame=16282 fps=359 q=-0.0 size=N/A time=00:11:19.09 bitrate=N/A speed=  15x    frame=16471 fps=359 q=-0.0 size=N/A time=00:11:26.97 bitrate=N/A speed=  15x    frame=16659 fps=359 q=-0.0 size=N/A time=00:11:34.81 bitrate=N/A speed=  15x    frame=16846 fps=359 q=-0.0 size=N/A time=00:11:42.61 bitrate=N/A speed=  15x    frame=17037 fps=359 q=-0.0 size=N/A time=00:11:50.58 bitrate=N/A speed=  15x    frame=17233 fps=359 q=-0.0 size=N/A time=00:11:58.75 bitrate=N/A speed=  15x    frame=17427 fps=359 q=-0.0 size=N/A time=00:12:06.85 bitrate=N/A speed=  15x    frame=17617 fps=360 q=-0.0 size=N/A time=00:12:14.77 bitrate=N/A speed=  15x    frame=17800 fps=360 q=-0.0 size=N/A time=00:12:22.40 bitrate=N/A speed=  15x    frame=17993 fps=360 q=-0.0 size=N/A time=00:12:30.45 bitrate=N/A speed=  15x    frame=18184 fps=360 q=-0.0 size=N/A time=00:12:38.42 bitrate=N/A speed=  15x    frame=18363 fps=360 q=-0.0 size=N/A time=00:12:45.89 bitrate=N/A speed=  15x    frame=18551 fps=360 q=-0.0 size=N/A time=00:12:53.73 bitrate=N/A speed=  15x    frame=18744 fps=360 q=-0.0 size=N/A time=00:13:01.78 bitrate=N/A speed=  15x    frame=18944 fps=360 q=-0.0 size=N/A time=00:13:10.12 bitrate=N/A speed=  15x    frame=19131 fps=360 q=-0.0 size=N/A time=00:13:17.92 bitrate=N/A speed=  15x    frame=19327 fps=360 q=-0.0 size=N/A time=00:13:26.09 bitrate=N/A speed=  15x    frame=19521 fps=360 q=-0.0 size=N/A time=00:13:34.18 bitrate=N/A speed=  15x    frame=19710 fps=361 q=-0.0 size=N/A time=00:13:42.07 bitrate=N/A speed=  15x    frame=19905 fps=361 q=-0.0 size=N/A time=00:13:50.20 bitrate=N/A speed=  15x    frame=20096 fps=361 q=-0.0 size=N/A time=00:13:58.17 bitrate=N/A speed=  15x    frame=20296 fps=361 q=-0.0 size=N/A time=00:14:06.51 bitrate=N/A speed=15.1x    frame=20489 fps=361 q=-0.0 size=N/A time=00:14:14.56 bitrate=N/A speed=15.1x    frame=20662 fps=361 q=-0.0 size=N/A time=00:14:21.77 bitrate=N/A speed=  15x    frame=20853 fps=361 q=-0.0 size=N/A time=00:14:29.74 bitrate=N/A speed=15.1x    frame=21051 fps=361 q=-0.0 size=N/A time=00:14:38.00 bitrate=N/A speed=15.1x    frame=21242 fps=361 q=-0.0 size=N/A time=00:14:45.96 bitrate=N/A speed=15.1x    frame=21434 fps=361 q=-0.0 size=N/A time=00:14:53.97 bitrate=N/A speed=15.1x    frame=21630 fps=361 q=-0.0 size=N/A time=00:15:02.15 bitrate=N/A speed=15.1x    frame=21829 fps=362 q=-0.0 size=N/A time=00:15:10.45 bitrate=N/A speed=15.1x    frame=22019 fps=362 q=-0.0 size=N/A time=00:15:18.37 bitrate=N/A speed=15.1x    frame=22202 fps=362 q=-0.0 size=N/A time=00:15:26.00 bitrate=N/A speed=15.1x    frame=22400 fps=362 q=-0.0 size=N/A time=00:15:34.26 bitrate=N/A speed=15.1x    frame=22600 fps=362 q=-0.0 size=N/A time=00:15:42.60 bitrate=N/A speed=15.1x    frame=22783 fps=362 q=-0.0 size=N/A time=00:15:50.24 bitrate=N/A speed=15.1x    frame=22971 fps=362 q=-0.0 size=N/A time=00:15:58.08 bitrate=N/A speed=15.1x    frame=23167 fps=362 q=-0.0 size=N/A time=00:16:06.25 bitrate=N/A speed=15.1x    frame=23355 fps=362 q=-0.0 size=N/A time=00:16:14.09 bitrate=N/A speed=15.1x    frame=23548 fps=362 q=-0.0 size=N/A time=00:16:22.14 bitrate=N/A speed=15.1x    frame=23745 fps=362 q=-0.0 size=N/A time=00:16:30.36 bitrate=N/A speed=15.1x    frame=23936 fps=362 q=-0.0 size=N/A time=00:16:38.33 bitrate=N/A speed=15.1x    frame=24124 fps=362 q=-0.0 size=N/A time=00:16:46.17 bitrate=N/A speed=15.1x    frame=24319 fps=363 q=-0.0 size=N/A time=00:16:54.30 bitrate=N/A speed=15.1x    frame=24504 fps=363 q=-0.0 size=N/A time=00:17:02.02 bitrate=N/A speed=15.1x    frame=24700 fps=363 q=-0.0 size=N/A time=00:17:10.19 bitrate=N/A speed=15.1x    frame=24896 fps=363 q=-0.0 size=N/A time=00:17:18.37 bitrate=N/A speed=15.1x    frame=25082 fps=363 q=-0.0 size=N/A time=00:17:26.12 bitrate=N/A speed=15.1x    frame=25276 fps=363 q=-0.0 size=N/A time=00:17:34.21 bitrate=N/A speed=15.1x    frame=25466 fps=363 q=-0.0 size=N/A time=00:17:42.14 bitrate=N/A speed=15.1x    frame=25663 fps=363 q=-0.0 size=N/A time=00:17:50.36 bitrate=N/A speed=15.1x    frame=25855 fps=363 q=-0.0 size=N/A time=00:17:58.36 bitrate=N/A speed=15.1x    frame=26047 fps=363 q=-0.0 size=N/A time=00:18:06.37 bitrate=N/A speed=15.1x    frame=26240 fps=363 q=-0.0 size=N/A time=00:18:14.42 bitrate=N/A speed=15.1x    frame=26426 fps=363 q=-0.0 size=N/A time=00:18:22.18 bitrate=N/A speed=15.2x    frame=26621 fps=363 q=-0.0 size=N/A time=00:18:30.31 bitrate=N/A speed=15.2x    frame=26812 fps=363 q=-0.0 size=N/A time=00:18:38.28 bitrate=N/A speed=15.2x    frame=27000 fps=363 q=-0.0 size=N/A time=00:18:46.12 bitrate=N/A speed=15.2x    frame=27179 fps=363 q=-0.0 size=N/A time=00:18:53.59 bitrate=N/A speed=15.2x    frame=27367 fps=363 q=-0.0 size=N/A time=00:19:01.43 bitrate=N/A speed=15.2x    frame=27554 fps=363 q=-0.0 size=N/A time=00:19:09.23 bitrate=N/A speed=15.2x    frame=27743 fps=363 q=-0.0 size=N/A time=00:19:17.11 bitrate=N/A speed=15.2x    frame=27935 fps=363 q=-0.0 size=N/A time=00:19:25.12 bitrate=N/A speed=15.2x    frame=28130 fps=363 q=-0.0 size=N/A time=00:19:33.25 bitrate=N/A speed=15.2x    frame=28316 fps=363 q=-0.0 size=N/A time=00:19:41.01 bitrate=N/A speed=15.2x    frame=28505 fps=364 q=-0.0 size=N/A time=00:19:48.89 bitrate=N/A speed=15.2x    frame=28702 fps=364 q=-0.0 size=N/A time=00:19:57.11 bitrate=N/A speed=15.2x    frame=28872 fps=363 q=-0.0 size=N/A time=00:20:04.20 bitrate=N/A speed=15.2x    frame=29040 fps=363 q=-0.0 size=N/A time=00:20:11.21 bitrate=N/A speed=15.1x    frame=29227 fps=363 q=-0.0 size=N/A time=00:20:19.00 bitrate=N/A speed=15.1x    frame=29408 fps=363 q=-0.0 size=N/A time=00:20:26.55 bitrate=N/A speed=15.1x    frame=29584 fps=363 q=-0.0 size=N/A time=00:20:33.89 bitrate=N/A speed=15.1x    frame=29762 fps=363 q=-0.0 size=N/A time=00:20:41.32 bitrate=N/A speed=15.1x    frame=29942 fps=363 q=-0.0 size=N/A time=00:20:48.83 bitrate=N/A speed=15.1x    frame=30115 fps=362 q=-0.0 size=N/A time=00:20:56.04 bitrate=N/A speed=15.1x    frame=30298 fps=362 q=-0.0 size=N/A time=00:21:03.67 bitrate=N/A speed=15.1x    frame=30495 fps=363 q=-0.0 size=N/A time=00:21:11.89 bitrate=N/A speed=15.1x    frame=30687 fps=363 q=-0.0 size=N/A time=00:21:19.90 bitrate=N/A speed=15.1x    frame=30877 fps=363 q=-0.0 size=N/A time=00:21:27.82 bitrate=N/A speed=15.1x    frame=31065 fps=363 q=-0.0 size=N/A time=00:21:35.66 bitrate=N/A speed=15.1x    frame=31260 fps=363 q=-0.0 size=N/A time=00:21:43.80 bitrate=N/A speed=15.1x    frame=31443 fps=363 q=-0.0 size=N/A time=00:21:51.43 bitrate=N/A speed=15.1x    frame=31636 fps=363 q=-0.0 size=N/A time=00:21:59.48 bitrate=N/A speed=15.1x    frame=31822 fps=363 q=-0.0 size=N/A time=00:22:07.24 bitrate=N/A speed=15.1x    frame=32001 fps=363 q=-0.0 size=N/A time=00:22:14.70 bitrate=N/A speed=15.1x    frame=32190 fps=363 q=-0.0 size=N/A time=00:22:22.59 bitrate=N/A speed=15.1x    frame=32380 fps=363 q=-0.0 size=N/A time=00:22:30.51 bitrate=N/A speed=15.1x    frame=32567 fps=363 q=-0.0 size=N/A time=00:22:38.31 bitrate=N/A speed=15.1x    frame=32728 fps=362 q=-0.0 size=N/A time=00:22:45.03 bitrate=N/A speed=15.1x    frame=32888 fps=362 q=-0.0 size=N/A time=00:22:51.70 bitrate=N/A speed=15.1x    frame=33069 fps=362 q=-0.0 size=N/A time=00:22:59.25 bitrate=N/A speed=15.1x    frame=33251 fps=362 q=-0.0 size=N/A time=00:23:06.84 bitrate=N/A speed=15.1x    frame=33421 fps=362 q=-0.0 size=N/A time=00:23:13.93 bitrate=N/A speed=15.1x    frame=33577 fps=362 q=-0.0 size=N/A time=00:23:20.44 bitrate=N/A speed=15.1x    frame=33732 fps=361 q=-0.0 size=N/A time=00:23:26.90 bitrate=N/A speed=15.1x    frame=33862 fps=361 q=-0.0 size=N/A time=00:23:32.32 bitrate=N/A speed=  15x    frame=34018 fps=360 q=-0.0 size=N/A time=00:23:38.83 bitrate=N/A speed=  15x    frame=34183 fps=360 q=-0.0 size=N/A time=00:23:45.71 bitrate=N/A speed=  15x    frame=34332 fps=360 q=-0.0 size=N/A time=00:23:51.93 bitrate=N/A speed=  15x    frame=34466 fps=359 q=-0.0 size=N/A time=00:23:57.51 bitrate=N/A speed=  15x    frame=34652 fps=359 q=-0.0 size=N/A time=00:24:05.27 bitrate=N/A speed=  15x    [Parsed_psnr_16 @ 00000212de925a40] PSNR y:48.720944 u:50.345195 v:50.392658 average:49.203944 min:37.702474 max:inf
[out#0/null @ 00000212d7438a00] video:14903KiB audio:271276KiB subtitle:0KiB other streams:0KiB global headers:0KiB muxing overhead: unknown
frame=34683 fps=359 q=-0.0 Lsize=N/A time=00:24:06.57 bitrate=N/A speed=  15x    
